<svg xmlns="http://www.w3.org/2000/svg" viewBox="0 0 64 64">
  <defs>
    <linearGradient id="bg" x1="0%" y1="0%" x2="100%" y2="100%">
      <stop offset="0%" style="stop-color:#1a472a"/>
      <stop offset="100%" style="stop-color:#0f2318"/>
    </linearGradient>
    <linearGradient id="accent" x1="0%" y1="0%" x2="100%" y2="100%">
      <stop offset="0%" style="stop-color:#d4760a"/>
      <stop offset="100%" style="stop-color:#c45e0a"/>
    </linearGradient>
  </defs>
  <circle cx="32" cy="32" r="30" fill="url(#bg)" stroke="#d4760a" stroke-width="2"/>
  <!-- Chitenge-inspired geometric border -->
  <circle cx="32" cy="32" r="26" fill="none" stroke="#d4760a" stroke-width="1" stroke-dasharray="4 3" opacity="0.6"/>
  <!-- Musical note stylized as African motif -->
  <path d="M24 20v20c0 3.3-3.6 6-8 6s-8-2.7-8-6 3.6-6 8-6c1.5 0 2.9.3 4 .8V16l16-4v18c0 3.3-3.6 6-8 6s-8-2.7-8-6 3.6-6 8-6c1.5 0 2.9.3 4 .8V12" fill="url(#accent)" opacity="0.95"/>
  <!-- Small diamond accent (Zambian geometric) -->
  <path d="M48 12l3 3-3 3-3-3z" fill="#d4760a" opacity="0.7"/>
  <path d="M50 20l2 2-2 2-2-2z" fill="#2d8a4e" opacity="0.6"/>
</svg>